# xmcd CD database file
#
# Track frame offsets:
#	150
#	20007
#	42135
#	60480
#	78747
#	100915
#	123142
#	143700
#	164257
#	182135
#	201687
#	220997
#
# Disc length: 3192 seconds
#
# Revision: 1
# Processed by: cddbd v1.5.2PL0 Copyright (c) Steve Scherf et al.
# Submitted via: CDex 1.51
#
DISCID=ac0c760c
DTITLE=Cheap Trick - Woke Up With A Monster
DYEAR=1994
DGENRE=Rock
TTITLE0=My Gang
TTITLE1=Woke Up With A Monster
TTITLE2=You're All I Wanna Do
TTITLE3=Never Run Out Of Love
TTITLE4=Didn't Know I Had It
TTITLE5=Ride The Pony
TTITLE6=Girlfriends
TTITLE7=Let Her Go
TTITLE8=Tell Me Everything
TTITLE9=Cry Baby
TTITLE10=Love Me For A Minute
TTITLE11=Sabre Dance
EXTD=YEAR: 1994
EXTT0=
EXTT1=
EXTT2=
EXTT3=
EXTT4=
EXTT5=
EXTT6=
EXTT7=
EXTT8=
EXTT9=
EXTT10=
EXTT11=
PLAYORDER=
